<mxfile host="app.diagrams.net" modified="2020-03-21T11:32:02.739Z" agent="Mozilla/5.0 (Macintosh; Intel Mac OS X 10_14_6) AppleWebKit/537.36 (KHTML, like Gecko) Chrome/80.0.3987.149 Safari/537.36" etag="PdZ0GSSeVMiEEESl8q7w" version="12.8.8" type="github">
  <diagram id="eiRvEvkPPCxFLHycEwpY" name="Page-1">
    <mxGraphModel dx="1240" dy="691" grid="1" gridSize="10" guides="1" tooltips="1" connect="1" arrows="1" fold="1" page="1" pageScale="1" pageWidth="827" pageHeight="1169" math="0" shadow="0">
      <root>
        <mxCell id="0" />
        <mxCell id="1" parent="0" />
        <mxCell id="OpRj0bCd-jl7v8Znc8dm-19" style="edgeStyle=none;rounded=0;orthogonalLoop=1;jettySize=auto;html=1;exitX=1;exitY=1;exitDx=0;exitDy=0;entryX=0;entryY=0.5;entryDx=0;entryDy=0;" edge="1" parent="1" source="OpRj0bCd-jl7v8Znc8dm-16" target="OpRj0bCd-jl7v8Znc8dm-15">
          <mxGeometry relative="1" as="geometry" />
        </mxCell>
        <mxCell id="OpRj0bCd-jl7v8Znc8dm-16" value="" style="rounded=1;whiteSpace=wrap;html=1;" vertex="1" parent="1">
          <mxGeometry x="30" y="280" width="280" height="200" as="geometry" />
        </mxCell>
        <mxCell id="OpRj0bCd-jl7v8Znc8dm-15" value="" style="rounded=1;whiteSpace=wrap;html=1;" vertex="1" parent="1">
          <mxGeometry x="600" y="480" width="280" height="170" as="geometry" />
        </mxCell>
        <mxCell id="OpRj0bCd-jl7v8Znc8dm-8" style="rounded=0;orthogonalLoop=1;jettySize=auto;html=1;exitX=1;exitY=0.5;exitDx=0;exitDy=0;" edge="1" parent="1" source="OpRj0bCd-jl7v8Znc8dm-1" target="OpRj0bCd-jl7v8Znc8dm-2">
          <mxGeometry relative="1" as="geometry" />
        </mxCell>
        <mxCell id="OpRj0bCd-jl7v8Znc8dm-17" style="edgeStyle=none;rounded=0;orthogonalLoop=1;jettySize=auto;html=1;exitX=0;exitY=1;exitDx=0;exitDy=0;entryX=0.5;entryY=0;entryDx=0;entryDy=0;" edge="1" parent="1" source="OpRj0bCd-jl7v8Znc8dm-1" target="OpRj0bCd-jl7v8Znc8dm-16">
          <mxGeometry relative="1" as="geometry" />
        </mxCell>
        <mxCell id="OpRj0bCd-jl7v8Znc8dm-18" style="edgeStyle=none;rounded=0;orthogonalLoop=1;jettySize=auto;html=1;exitX=0.75;exitY=1;exitDx=0;exitDy=0;entryX=0.5;entryY=0;entryDx=0;entryDy=0;" edge="1" parent="1" source="OpRj0bCd-jl7v8Znc8dm-1" target="OpRj0bCd-jl7v8Znc8dm-15">
          <mxGeometry relative="1" as="geometry" />
        </mxCell>
        <mxCell id="OpRj0bCd-jl7v8Znc8dm-1" value="应用" style="rounded=1;whiteSpace=wrap;html=1;" vertex="1" parent="1">
          <mxGeometry x="354" y="110" width="120" height="60" as="geometry" />
        </mxCell>
        <mxCell id="OpRj0bCd-jl7v8Znc8dm-2" value="依赖的应用" style="rounded=1;whiteSpace=wrap;html=1;" vertex="1" parent="1">
          <mxGeometry x="707" y="190" width="120" height="60" as="geometry" />
        </mxCell>
        <mxCell id="OpRj0bCd-jl7v8Znc8dm-3" value="依赖的服务器" style="rounded=1;whiteSpace=wrap;html=1;" vertex="1" parent="1">
          <mxGeometry x="680" y="510" width="120" height="60" as="geometry" />
        </mxCell>
        <mxCell id="OpRj0bCd-jl7v8Znc8dm-4" value="oceanbase" style="rounded=1;whiteSpace=wrap;html=1;" vertex="1" parent="1">
          <mxGeometry x="110" y="290" width="120" height="60" as="geometry" />
        </mxCell>
        <mxCell id="OpRj0bCd-jl7v8Znc8dm-5" value="cache" style="rounded=1;whiteSpace=wrap;html=1;" vertex="1" parent="1">
          <mxGeometry x="110" y="350" width="120" height="60" as="geometry" />
        </mxCell>
        <mxCell id="OpRj0bCd-jl7v8Znc8dm-6" value="消息队列" style="rounded=1;whiteSpace=wrap;html=1;" vertex="1" parent="1">
          <mxGeometry x="110" y="410" width="120" height="60" as="geometry" />
        </mxCell>
        <mxCell id="OpRj0bCd-jl7v8Znc8dm-7" value="网络" style="rounded=1;whiteSpace=wrap;html=1;" vertex="1" parent="1">
          <mxGeometry x="680" y="570" width="120" height="60" as="geometry" />
        </mxCell>
      </root>
    </mxGraphModel>
  </diagram>
</mxfile>
